<?xml version="1.0" encoding="UTF-8" standalone="no"?>
<!-- Created with Inkscape (http://www.inkscape.org/) -->

<svg
   width="210mm"
   height="297mm"
   viewBox="0 0 210 297"
   version="1.1"
   id="svg5"
   sodipodi:docname="tiles.svg"
   inkscape:version="1.1.2 (b8e25be833, 2022-02-05)"
   inkscape:export-filename="C:\Users\Rifky Achong\Desktop\Buku\Independent Learning\react-tinyprojects\twenty-game-app\private\inkshape\tile1.png"
   inkscape:export-xdpi="96"
   inkscape:export-ydpi="96"
   xmlns:inkscape="http://www.inkscape.org/namespaces/inkscape"
   xmlns:sodipodi="http://sodipodi.sourceforge.net/DTD/sodipodi-0.dtd"
   xmlns="http://www.w3.org/2000/svg"
   xmlns:svg="http://www.w3.org/2000/svg">
  <sodipodi:namedview
     id="namedview7"
     pagecolor="#505050"
     bordercolor="#eeeeee"
     borderopacity="1"
     inkscape:pageshadow="0"
     inkscape:pageopacity="0"
     inkscape:pagecheckerboard="0"
     inkscape:document-units="mm"
     showgrid="false"
     inkscape:zoom="1.4722173"
     inkscape:cx="426.9071"
     inkscape:cy="1820.0439"
     inkscape:window-width="1920"
     inkscape:window-height="1001"
     inkscape:window-x="-9"
     inkscape:window-y="-9"
     inkscape:window-maximized="1"
     inkscape:current-layer="layer1"
     showguides="true">
    <inkscape:grid
       type="xygrid"
       id="grid136" />
  </sodipodi:namedview>
  <defs
     id="defs2" />
  <g
     inkscape:label="Layer 1"
     inkscape:groupmode="layer"
     id="layer1">
    <rect
       style="opacity:0.7;fill:none;stroke-width:0.264583"
       id="rect160"
       width="70"
       height="80"
       x="0"
       y="0" />
    <rect
       style="fill:none;stroke-width:1.23123"
       id="rect1200"
       width="70"
       height="80"
       x="0"
       y="0"
       ry="0" />
    <rect
       style="fill:#ffe680;stroke-width:0.264583"
       id="rect1854"
       width="62"
       height="74"
       x="4"
       y="3"
       ry="4" />
    <path
       id="rect1854-8"
       style="opacity:0.7;fill:#000000;stroke-width:0.264583"
       d="m 4,69.215977 v 3.78375 C 4,75.215727 5.7837573,77 7.9997564,77 H 62.000076 c 2.216002,0 3.999756,-1.784273 3.999756,-4.000273 v -3.78375 c 0,2.096217 -1.687531,3.78375 -3.783748,3.78375 H 7.783748 C 5.6875336,72.999727 4,71.312194 4,69.215977 Z" />
    <text
       xml:space="preserve"
       style="font-style:normal;font-variant:normal;font-weight:normal;font-stretch:normal;font-size:44px;line-height:1.25;font-family:Fredoka;-inkscape-font-specification:Fredoka;fill:#4d4d4d;fill-opacity:1;stroke:none;stroke-width:0.264583"
       x="26.707001"
       y="54.916"
       id="text2952"><tspan
         sodipodi:role="line"
         id="tspan2950"
         style="font-style:normal;font-variant:normal;font-weight:normal;font-stretch:normal;font-size:44px;font-family:Fredoka;-inkscape-font-specification:Fredoka;fill:#4d4d4d;stroke-width:0.264583"
         x="26.707001"
         y="54.916">1</tspan></text>
    <rect
       style="opacity:0.7;fill:none;stroke-width:0.264583"
       id="rect160-6"
       width="70"
       height="80"
       x="70"
       y="3.5527137e-15" />
    <g
       id="g98641">
      <rect
         style="fill:#ff0000;stroke-width:0.264583"
         id="rect1854-0"
         width="62"
         height="74"
         x="74"
         y="3"
         ry="4" />
      <path
         id="rect1854-8-3"
         style="opacity:0.7;fill:#000000;stroke-width:0.264583"
         d="m 73.999999,69.215977 v 3.78375 c 0,2.216 1.783757,4.000273 3.999756,4.000273 h 54.000315 c 2.21601,0 3.99976,-1.784273 3.99976,-4.000273 v -3.78375 c 0,2.096217 -1.68753,3.78375 -3.78375,3.78375 H 77.783747 c -2.096214,0 -3.783748,-1.687533 -3.783748,-3.78375 z" />
      <text
         xml:space="preserve"
         style="font-style:normal;font-variant:normal;font-weight:normal;font-stretch:normal;font-size:44px;line-height:1.25;font-family:Fredoka;-inkscape-font-specification:Fredoka;fill:#ffffff;fill-opacity:1;stroke:none;stroke-width:0.264583"
         x="91.998001"
         y="55.245998"
         id="text2952-0"><tspan
           sodipodi:role="line"
           id="tspan2950-4"
           style="font-style:normal;font-variant:normal;font-weight:normal;font-stretch:normal;font-size:44px;font-family:Fredoka;-inkscape-font-specification:Fredoka;fill:#ffffff;stroke-width:0.264583"
           x="91.998001"
           y="55.245998">2</tspan></text>
    </g>
    <rect
       style="opacity:0.7;fill:none;stroke-width:0.264583"
       id="rect160-5"
       width="70"
       height="80"
       x="140"
       y="7.1054274e-15" />
    <g
       id="g98727"
       inkscape:export-filename="C:\Users\Rifky Achong\Desktop\Buku\Independent Learning\react-tinyprojects\twenty-game-app\private\inkshape\tile3.png"
       inkscape:export-xdpi="96"
       inkscape:export-ydpi="96">
      <rect
         style="fill:#00ffff;stroke-width:0.264583"
         id="rect1854-82"
         width="62"
         height="74"
         x="144"
         y="3"
         ry="4" />
      <path
         id="rect1854-8-5"
         style="opacity:0.7;fill:#000000;stroke-width:0.264583"
         d="m 144,69.215977 v 3.78375 C 144,75.215727 145.78376,77 147.99976,77 h 54.00032 c 2.216,0 3.99975,-1.784273 3.99975,-4.000273 v -3.78375 c 0,2.096217 -1.68753,3.78375 -3.78375,3.78375 h -54.43233 c -2.09622,0 -3.78375,-1.687533 -3.78375,-3.78375 z" />
      <text
         xml:space="preserve"
         style="font-style:normal;font-variant:normal;font-weight:normal;font-stretch:normal;font-size:44px;line-height:1.25;font-family:Fredoka;-inkscape-font-specification:Fredoka;fill:#ffffff;fill-opacity:1;stroke:none;stroke-width:0.264583"
         x="162.24001"
         y="55.026001"
         id="text2952-2"><tspan
           sodipodi:role="line"
           id="tspan2950-0"
           style="font-style:normal;font-variant:normal;font-weight:normal;font-stretch:normal;font-size:44px;font-family:Fredoka;-inkscape-font-specification:Fredoka;fill:#ffffff;stroke-width:0.264583"
           x="162.24001"
           y="55.026001">3</tspan></text>
    </g>
    <rect
       style="opacity:0.7;fill:none;stroke-width:0.264583"
       id="rect160-8"
       width="70"
       height="80"
       x="0"
       y="80" />
    <g
       id="g98733">
      <rect
         style="fill:#0000ff;stroke-width:0.264583"
         id="rect1854-7"
         width="62"
         height="74"
         x="4.0000019"
         y="83"
         ry="4" />
      <path
         id="rect1854-8-31"
         style="opacity:0.7;fill:#000000;stroke-width:0.264583"
         d="m 4.0000021,149.21598 v 3.78374 c 0,2.21601 1.7837573,4.00028 3.9997564,4.00028 H 62.000078 c 2.216002,0 3.999756,-1.78427 3.999756,-4.00028 v -3.78374 c 0,2.09621 -1.687531,3.78374 -3.783748,3.78374 H 7.7837501 c -2.0962144,0 -3.783748,-1.68753 -3.783748,-3.78374 z" />
      <text
         xml:space="preserve"
         style="font-style:normal;font-variant:normal;font-weight:normal;font-stretch:normal;font-size:44px;line-height:1.25;font-family:Fredoka;-inkscape-font-specification:Fredoka;fill:#ffffff;fill-opacity:1;stroke:none;stroke-width:0.264583"
         x="23.230001"
         y="135.05901"
         id="text2952-00"><tspan
           sodipodi:role="line"
           id="tspan2950-6"
           style="font-style:normal;font-variant:normal;font-weight:normal;font-stretch:normal;font-size:44px;font-family:Fredoka;-inkscape-font-specification:Fredoka;fill:#ffffff;stroke-width:0.264583"
           x="23.230001"
           y="135.05901">4</tspan></text>
    </g>
    <rect
       style="opacity:0.7;fill:none;stroke-width:0.264583"
       id="rect160-9"
       width="70"
       height="80"
       x="70"
       y="80" />
    <g
       id="g98739">
      <rect
         style="fill:#ff00ff;stroke-width:0.264583"
         id="rect1854-9"
         width="62"
         height="74"
         x="74"
         y="83"
         ry="4" />
      <path
         id="rect1854-8-52"
         style="opacity:0.7;fill:#000000;stroke-width:0.264583"
         d="m 74.000002,149.21598 v 3.78375 c 0,2.216 1.783757,4.00027 3.999756,4.00027 h 54.000322 c 2.216,0 3.99975,-1.78427 3.99975,-4.00027 v -3.78375 c 0,2.09621 -1.68753,3.78375 -3.78374,3.78375 H 77.78375 c -2.096214,0 -3.783748,-1.68754 -3.783748,-3.78375 z" />
      <text
         xml:space="preserve"
         style="font-style:normal;font-variant:normal;font-weight:normal;font-stretch:normal;font-size:44px;line-height:1.25;font-family:Fredoka;-inkscape-font-specification:Fredoka;fill:#ffffff;fill-opacity:1;stroke:none;stroke-width:0.264583"
         x="93.912003"
         y="134.80783"
         id="text2952-4"><tspan
           sodipodi:role="line"
           id="tspan2950-2"
           style="font-style:normal;font-variant:normal;font-weight:normal;font-stretch:normal;font-size:44px;font-family:Fredoka;-inkscape-font-specification:Fredoka;fill:#ffffff;stroke-width:0.264583"
           x="93.912003"
           y="134.80783">5</tspan></text>
    </g>
    <rect
       style="opacity:0.7;fill:none;stroke-width:0.264583"
       id="rect160-7"
       width="70"
       height="80"
       x="140"
       y="80" />
    <g
       id="g98745">
      <rect
         style="fill:#008000;stroke-width:0.264583"
         id="rect1854-4"
         width="62"
         height="74"
         x="144"
         y="83"
         ry="4" />
      <path
         id="rect1854-8-1"
         style="opacity:0.7;fill:#000000;stroke-width:0.264583"
         d="m 144,149.21598 v 3.78375 c 0,2.216 1.78376,4.00027 3.99976,4.00027 h 54.00032 c 2.216,0 3.99975,-1.78427 3.99975,-4.00027 v -3.78375 c 0,2.09621 -1.68753,3.78375 -3.78375,3.78375 h -54.43233 c -2.09622,0 -3.78375,-1.68754 -3.78375,-3.78375 z" />
      <text
         xml:space="preserve"
         style="font-style:normal;font-variant:normal;font-weight:normal;font-stretch:normal;font-size:44px;line-height:1.25;font-family:Fredoka;-inkscape-font-specification:Fredoka;fill:#ffffff;fill-opacity:1;stroke:none;stroke-width:0.264583"
         x="163.29601"
         y="134.87199"
         id="text2952-6"><tspan
           sodipodi:role="line"
           id="tspan2950-62"
           style="font-style:normal;font-variant:normal;font-weight:normal;font-stretch:normal;font-size:44px;font-family:Fredoka;-inkscape-font-specification:Fredoka;fill:#ffffff;stroke-width:0.264583"
           x="163.29601"
           y="134.87199">6</tspan></text>
    </g>
    <rect
       style="opacity:0.7;fill:none;stroke-width:0.264583"
       id="rect160-3"
       width="70"
       height="80"
       x="-7.1054274e-15"
       y="160" />
    <g
       id="g98751">
      <rect
         style="fill:#a5ff00;stroke-width:0.264583;fill-opacity:1"
         id="rect1854-44"
         width="62"
         height="74"
         x="3.9999983"
         y="163"
         ry="4" />
      <path
         id="rect1854-8-0"
         style="opacity:0.7;fill:#000000;stroke-width:0.264583"
         d="m 3.9999982,229.21598 v 3.78375 c 0,2.216 1.7837573,4.00027 3.9997564,4.00027 H 62.000074 c 2.216002,0 3.999756,-1.78427 3.999756,-4.00027 v -3.78375 c 0,2.09621 -1.687531,3.78375 -3.783748,3.78375 H 7.7837462 c -2.0962144,0 -3.783748,-1.68754 -3.783748,-3.78375 z" />
      <text
         xml:space="preserve"
         style="font-style:normal;font-variant:normal;font-weight:normal;font-stretch:normal;font-size:44px;line-height:1.25;font-family:Fredoka;-inkscape-font-specification:Fredoka;fill:#ffffff;fill-opacity:1;stroke:none;stroke-width:0.264583"
         x="23.053999"
         y="214.938"
         id="text2952-66"><tspan
           sodipodi:role="line"
           id="tspan2950-27"
           style="font-style:normal;font-variant:normal;font-weight:normal;font-stretch:normal;font-size:44px;font-family:Fredoka;-inkscape-font-specification:Fredoka;fill:#ffffff;stroke-width:0.264583"
           x="23.053999"
           y="214.938">7</tspan></text>
    </g>
    <rect
       style="opacity:0.7;fill:none;stroke-width:0.264583"
       id="rect160-31"
       width="70"
       height="80"
       x="70"
       y="160" />
    <g
       id="g98757">
      <rect
         style="fill:#a500ff;stroke-width:0.264583;fill-opacity:1"
         id="rect1854-5"
         width="62"
         height="74"
         x="74"
         y="162.99998"
         ry="4" />
      <path
         id="rect1854-8-36"
         style="opacity:0.7;fill:#000000;stroke-width:0.264583"
         d="m 74.000003,229.21597 v 3.78375 c 0,2.216 1.783757,4.00027 3.999756,4.00027 h 54.000321 c 2.216,0 3.99976,-1.78427 3.99976,-4.00027 v -3.78375 c 0,2.09621 -1.68754,3.78375 -3.78375,3.78375 H 77.783751 c -2.096214,0 -3.783748,-1.68754 -3.783748,-3.78375 z" />
      <text
         xml:space="preserve"
         style="font-style:normal;font-variant:normal;font-weight:normal;font-stretch:normal;font-size:44px;line-height:1.25;font-family:Fredoka;-inkscape-font-specification:Fredoka;fill:#ffffff;fill-opacity:1;stroke:none;stroke-width:0.264583"
         x="92.811996"
         y="215.06999"
         id="text2952-9"><tspan
           sodipodi:role="line"
           id="tspan2950-00"
           style="font-style:normal;font-variant:normal;font-weight:normal;font-stretch:normal;font-size:44px;font-family:Fredoka;-inkscape-font-specification:Fredoka;fill:#ffffff;stroke-width:0.264583"
           x="92.811996"
           y="215.06999">8</tspan></text>
    </g>
    <rect
       style="opacity:0.7;fill:none;stroke-width:0.264583"
       id="rect160-59"
       width="70"
       height="80"
       x="140"
       y="160" />
    <g
       id="g98763">
      <rect
         style="fill:#ffa500;stroke-width:0.264583;fill-opacity:1"
         id="rect1854-55"
         width="62"
         height="74"
         x="144.00002"
         y="163.00002"
         ry="4" />
      <path
         id="rect1854-8-8"
         style="opacity:0.7;fill:#000000;stroke-width:0.264583"
         d="m 144.00001,229.21599 v 3.78375 c 0,2.216 1.78376,4.00027 3.99976,4.00027 h 54.00032 c 2.216,0 3.99975,-1.78427 3.99975,-4.00027 v -3.78375 c 0,2.09621 -1.68753,3.78375 -3.78375,3.78375 h -54.43233 c -2.09622,0 -3.78375,-1.68754 -3.78375,-3.78375 z" />
      <text
         xml:space="preserve"
         style="font-style:normal;font-variant:normal;font-weight:normal;font-stretch:normal;font-size:44px;line-height:1.25;font-family:Fredoka;-inkscape-font-specification:Fredoka;fill:#ffffff;fill-opacity:1;stroke:none;stroke-width:0.264583"
         x="163.29602"
         y="215.15802"
         id="text2952-68"><tspan
           sodipodi:role="line"
           id="tspan2950-7"
           style="font-style:normal;font-variant:normal;font-weight:normal;font-stretch:normal;font-size:44px;font-family:Fredoka;-inkscape-font-specification:Fredoka;fill:#ffffff;stroke-width:0.264583"
           x="163.29602"
           y="215.15802">9</tspan></text>
    </g>
    <rect
       style="opacity:0.7;fill:none;stroke-width:0.264583"
       id="rect160-50"
       width="70"
       height="80"
       x="-7.1054274e-15"
       y="240" />
    <g
       id="g98769">
      <rect
         style="fill:#cccccc;stroke-width:0.264583"
         id="rect1854-74"
         width="62"
         height="74"
         x="3.9999998"
         y="243"
         ry="4" />
      <path
         id="rect1854-8-2"
         style="opacity:0.7;fill:#000000;stroke-width:0.264583"
         d="m 3.9999998,309.21598 v 3.78375 c 0,2.216 1.7837573,4.00027 3.9997564,4.00027 H 62.000076 c 2.216002,0 3.999756,-1.78427 3.999756,-4.00027 v -3.78375 c 0,2.09621 -1.687531,3.78375 -3.783748,3.78375 H 7.7837478 c -2.0962144,0 -3.783748,-1.68754 -3.783748,-3.78375 z" />
      <text
         xml:space="preserve"
         style="font-style:normal;font-variant:normal;font-weight:normal;font-stretch:normal;font-size:44px;line-height:1.25;font-family:Fredoka;-inkscape-font-specification:Fredoka;fill:#ffffff;fill-opacity:1;stroke:none;stroke-width:0.264583"
         x="13.792989"
         y="294.98199"
         id="text2952-5"><tspan
           sodipodi:role="line"
           id="tspan2950-75"
           style="font-style:normal;font-variant:normal;font-weight:normal;font-stretch:normal;font-size:44px;font-family:Fredoka;-inkscape-font-specification:Fredoka;fill:#ffffff;stroke-width:0.264583"
           x="13.792989"
           y="294.98199">10</tspan></text>
    </g>
    <rect
       style="opacity:0.7;fill:none;stroke-width:0.264583"
       id="rect160-35"
       width="70"
       height="80"
       x="70"
       y="240" />
    <g
       id="g98775">
      <rect
         style="fill:#c8cc33;stroke-width:0.264583;fill-opacity:1"
         id="rect1854-02"
         width="62"
         height="74"
         x="74"
         y="243"
         ry="4" />
      <path
         id="rect1854-8-01"
         style="opacity:0.7;fill:#000000;stroke-width:0.264583"
         d="m 74.000001,309.21598 v 3.78375 c 0,2.216 1.783757,4.00027 3.999756,4.00027 h 54.000323 c 2.216,0 3.99975,-1.78427 3.99975,-4.00027 v -3.78375 c 0,2.09621 -1.68753,3.78375 -3.78375,3.78375 H 77.783749 c -2.096214,0 -3.783748,-1.68754 -3.783748,-3.78375 z" />
      <text
         xml:space="preserve"
         style="font-style:normal;font-variant:normal;font-weight:normal;font-stretch:normal;font-size:44px;line-height:1.25;font-family:Fredoka;-inkscape-font-specification:Fredoka;fill:#ffffff;fill-opacity:1;stroke:none;stroke-width:0.264583"
         x="88.17099"
         y="294.91599"
         id="text2952-3"><tspan
           sodipodi:role="line"
           id="tspan2950-63"
           style="font-style:normal;font-variant:normal;font-weight:normal;font-stretch:normal;font-size:44px;font-family:Fredoka;-inkscape-font-specification:Fredoka;fill:#ffffff;stroke-width:0.264583"
           x="88.17099"
           y="294.91599">11</tspan></text>
    </g>
    <rect
       style="opacity:0.7;fill:none;stroke-width:0.264583"
       id="rect160-56"
       width="70"
       height="80"
       x="140"
       y="240" />
    <g
       id="g98781">
      <rect
         style="fill:#cc3333;fill-opacity:1;stroke-width:0.264583"
         id="rect1854-2"
         width="62"
         height="74"
         x="144"
         y="243"
         ry="4" />
      <path
         id="rect1854-8-08"
         style="opacity:0.7;fill:#000000;stroke-width:0.264583"
         d="m 144,309.21598 v 3.78375 c 0,2.216 1.78376,4.00027 3.99976,4.00027 h 54.00032 c 2.216,0 3.99975,-1.78427 3.99975,-4.00027 v -3.78375 c 0,2.09621 -1.68753,3.78375 -3.78375,3.78375 h -54.43233 c -2.09622,0 -3.78375,-1.68754 -3.78375,-3.78375 z" />
      <text
         xml:space="preserve"
         style="font-style:normal;font-variant:normal;font-weight:normal;font-stretch:normal;font-size:44px;line-height:1.25;font-family:Fredoka;-inkscape-font-specification:Fredoka;fill:#ffffff;fill-opacity:1;stroke:none;stroke-width:0.264583"
         x="153.55099"
         y="295.11401"
         id="text2952-44"><tspan
           sodipodi:role="line"
           id="tspan2950-8"
           style="font-style:normal;font-variant:normal;font-weight:normal;font-stretch:normal;font-size:44px;font-family:Fredoka;-inkscape-font-specification:Fredoka;fill:#ffffff;stroke-width:0.264583"
           x="153.55099"
           y="295.11401">12</tspan></text>
    </g>
    <rect
       style="opacity:0.7;fill:none;stroke-width:0.264583"
       id="rect160-50-7"
       width="70"
       height="80"
       x="1.9073486e-06"
       y="320" />
    <g
       id="g99687">
      <rect
         style="fill:#96e9e9;stroke-width:0.264583;fill-opacity:1"
         id="rect1854-74-3"
         width="62"
         height="74"
         x="4"
         y="323"
         ry="4" />
      <path
         id="rect1854-8-2-3"
         style="opacity:0.7;fill:#000000;stroke-width:0.264583"
         d="m 4.0000002,389.21598 v 3.78375 c 0,2.216 1.7837573,4.00027 3.9997564,4.00027 H 62.000076 c 2.216002,0 3.999756,-1.78427 3.999756,-4.00027 v -3.78375 c 0,2.09621 -1.687531,3.78375 -3.783748,3.78375 H 7.7837482 c -2.0962144,0 -3.783748,-1.68754 -3.783748,-3.78375 z" />
      <text
         xml:space="preserve"
         style="font-style:normal;font-variant:normal;font-weight:normal;font-stretch:normal;font-size:44px;line-height:1.25;font-family:Fredoka;-inkscape-font-specification:Fredoka;fill:#ffffff;fill-opacity:1;stroke:none;stroke-width:0.264583"
         x="13.79299"
         y="375.026"
         id="text2952-5-5"><tspan
           sodipodi:role="line"
           id="tspan2950-75-6"
           style="font-style:normal;font-variant:normal;font-weight:normal;font-stretch:normal;font-size:44px;font-family:Fredoka;-inkscape-font-specification:Fredoka;fill:#ffffff;stroke-width:0.264583"
           x="13.79299"
           y="375.026">13</tspan></text>
    </g>
    <rect
       style="opacity:0.7;fill:none;stroke-width:0.264583"
       id="rect160-35-8"
       width="70"
       height="80"
       x="70"
       y="320" />
    <g
       id="g99693">
      <rect
         style="fill:#e996e7;stroke-width:0.264583;fill-opacity:1"
         id="rect1854-02-4"
         width="62"
         height="74"
         x="74"
         y="323"
         ry="4" />
      <path
         id="rect1854-8-01-6"
         style="opacity:0.7;fill:#000000;stroke-width:0.264583"
         d="m 74.000001,389.21598 v 3.78375 c 0,2.216 1.783757,4.00027 3.999756,4.00027 h 54.000323 c 2.216,0 3.99975,-1.78427 3.99975,-4.00027 v -3.78375 c 0,2.09621 -1.68753,3.78375 -3.78375,3.78375 H 77.783749 c -2.096214,0 -3.783748,-1.68754 -3.783748,-3.78375 z" />
      <text
         xml:space="preserve"
         style="font-style:normal;font-variant:normal;font-weight:normal;font-stretch:normal;font-size:44px;line-height:1.25;font-family:Fredoka;-inkscape-font-specification:Fredoka;fill:#ffffff;fill-opacity:1;stroke:none;stroke-width:0.264583"
         x="84.672989"
         y="375.01501"
         id="text2952-3-5"><tspan
           sodipodi:role="line"
           id="tspan2950-63-2"
           style="font-style:normal;font-variant:normal;font-weight:normal;font-stretch:normal;font-size:44px;font-family:Fredoka;-inkscape-font-specification:Fredoka;fill:#ffffff;stroke-width:0.264583"
           x="84.672989"
           y="375.01501">14</tspan></text>
    </g>
    <rect
       style="opacity:0.7;fill:none;stroke-width:0.264583"
       id="rect160-56-6"
       width="70"
       height="80"
       x="140"
       y="320" />
    <g
       id="g99699">
      <rect
         style="fill:#999999;stroke-width:0.264583"
         id="rect1854-2-5"
         width="62"
         height="74"
         x="144"
         y="323"
         ry="4" />
      <path
         id="rect1854-8-08-9"
         style="opacity:0.7;fill:#000000;stroke-width:0.264583"
         d="m 144,389.21598 v 3.78375 c 0,2.216 1.78376,4.00027 3.99976,4.00027 h 54.00032 c 2.216,0 3.99975,-1.78427 3.99975,-4.00027 v -3.78375 c 0,2.09621 -1.68753,3.78375 -3.78375,3.78375 h -54.43233 c -2.09622,0 -3.78375,-1.68754 -3.78375,-3.78375 z" />
      <text
         xml:space="preserve"
         style="font-style:normal;font-variant:normal;font-weight:normal;font-stretch:normal;font-size:44px;line-height:1.25;font-family:Fredoka;-inkscape-font-specification:Fredoka;fill:#ffffff;fill-opacity:1;stroke:none;stroke-width:0.264583"
         x="155.355"
         y="374.80783"
         id="text2952-44-3"><tspan
           sodipodi:role="line"
           id="tspan2950-8-2"
           style="font-style:normal;font-variant:normal;font-weight:normal;font-stretch:normal;font-size:44px;font-family:Fredoka;-inkscape-font-specification:Fredoka;fill:#ffffff;stroke-width:0.264583"
           x="155.355"
           y="374.80783">15</tspan></text>
    </g>
    <rect
       style="opacity:0.7;fill:none;stroke-width:0.264583"
       id="rect160-50-1"
       width="70"
       height="80"
       x="0"
       y="400" />
    <g
       id="g99705">
      <rect
         style="fill:#93bfec;stroke-width:0.264583;fill-opacity:1"
         id="rect1854-74-38"
         width="62"
         height="74"
         x="4"
         y="403"
         ry="4" />
      <path
         id="rect1854-8-2-6"
         style="opacity:0.7;fill:#000000;stroke-width:0.264583"
         d="m 4.0000002,469.21599 v 3.78375 c 0,2.216 1.7837573,4.00027 3.9997564,4.00027 H 62.000076 c 2.216002,0 3.999756,-1.78427 3.999756,-4.00027 v -3.78375 c 0,2.09621 -1.687531,3.78375 -3.783748,3.78375 H 7.7837482 c -2.0962144,0 -3.783748,-1.68754 -3.783748,-3.78375 z" />
      <text
         xml:space="preserve"
         style="font-style:normal;font-variant:normal;font-weight:normal;font-stretch:normal;font-size:44px;line-height:1.25;font-family:Fredoka;-inkscape-font-specification:Fredoka;fill:#ffffff;fill-opacity:1;stroke:none;stroke-width:0.264583"
         x="14.848989"
         y="454.87201"
         id="text2952-5-2"><tspan
           sodipodi:role="line"
           id="tspan2950-75-1"
           style="font-style:normal;font-variant:normal;font-weight:normal;font-stretch:normal;font-size:44px;font-family:Fredoka;-inkscape-font-specification:Fredoka;fill:#ffffff;stroke-width:0.264583"
           x="14.848989"
           y="454.87201">16</tspan></text>
    </g>
    <rect
       style="opacity:0.7;fill:none;stroke-width:0.264583"
       id="rect160-35-9"
       width="70"
       height="80"
       x="70"
       y="400" />
    <g
       id="g99711"
       inkscape:export-filename="C:\Users\Rifky Achong\Desktop\Buku\Independent Learning\react-tinyprojects\twenty-game-app\private\inkshape\tile17.png"
       inkscape:export-xdpi="96"
       inkscape:export-ydpi="96">
      <rect
         style="fill:#93ec93;stroke-width:0.264583;fill-opacity:1"
         id="rect1854-02-7"
         width="62"
         height="74"
         x="74"
         y="403"
         ry="4" />
      <path
         id="rect1854-8-01-8"
         style="opacity:0.7;fill:#000000;stroke-width:0.264583"
         d="m 74.000001,469.21599 v 3.78375 c 0,2.216 1.783757,4.00027 3.999756,4.00027 h 54.000323 c 2.216,0 3.99975,-1.78427 3.99975,-4.00027 v -3.78375 c 0,2.09621 -1.68753,3.78375 -3.78375,3.78375 H 77.783749 c -2.096214,0 -3.783748,-1.68754 -3.783748,-3.78375 z" />
      <text
         xml:space="preserve"
         style="font-style:normal;font-variant:normal;font-weight:normal;font-stretch:normal;font-size:44px;line-height:1.25;font-family:Fredoka;-inkscape-font-specification:Fredoka;fill:#ffffff;fill-opacity:1;stroke:none;stroke-width:0.264583"
         x="84.496986"
         y="454.91599"
         id="text2952-3-6"><tspan
           sodipodi:role="line"
           id="tspan2950-63-6"
           style="font-style:normal;font-variant:normal;font-weight:normal;font-stretch:normal;font-size:44px;font-family:Fredoka;-inkscape-font-specification:Fredoka;fill:#ffffff;stroke-width:0.264583"
           x="84.496986"
           y="454.91599">17</tspan></text>
    </g>
    <rect
       style="opacity:0.7;fill:none;stroke-width:0.264583"
       id="rect160-56-1"
       width="70"
       height="80"
       x="140"
       y="400" />
    <g
       id="g99717"
       inkscape:export-filename="C:\Users\Rifky Achong\Desktop\Buku\Independent Learning\react-tinyprojects\twenty-game-app\private\inkshape\tile18.png"
       inkscape:export-xdpi="96"
       inkscape:export-ydpi="96">
      <rect
         style="fill:#f28df2;stroke-width:0.264583;fill-opacity:1"
         id="rect1854-2-1"
         width="62"
         height="74"
         x="144"
         y="403"
         ry="4" />
      <path
         id="rect1854-8-08-0"
         style="opacity:0.7;fill:#000000;stroke-width:0.264583"
         d="m 144,469.21599 v 3.78375 c 0,2.216 1.78376,4.00027 3.99976,4.00027 h 54.00032 c 2.216,0 3.99975,-1.78427 3.99975,-4.00027 v -3.78375 c 0,2.09621 -1.68753,3.78375 -3.78375,3.78375 h -54.43233 c -2.09622,0 -3.78375,-1.68754 -3.78375,-3.78375 z" />
      <text
         xml:space="preserve"
         style="font-style:normal;font-variant:normal;font-weight:normal;font-stretch:normal;font-size:44px;line-height:1.25;font-family:Fredoka;-inkscape-font-specification:Fredoka;fill:#ffffff;fill-opacity:1;stroke:none;stroke-width:0.264583"
         x="154.36499"
         y="455.07001"
         id="text2952-44-1"><tspan
           sodipodi:role="line"
           id="tspan2950-8-7"
           style="font-style:normal;font-variant:normal;font-weight:normal;font-stretch:normal;font-size:44px;font-family:Fredoka;-inkscape-font-specification:Fredoka;fill:#ffffff;stroke-width:0.264583"
           x="154.36499"
           y="455.07001">18</tspan></text>
    </g>
    <rect
       style="opacity:0.7;fill:none;stroke-width:0.264583"
       id="rect160-50-4"
       width="70"
       height="80"
       x="0"
       y="480" />
    <g
       id="g103056"
       inkscape:export-filename="C:\Users\Rifky Achong\Desktop\Buku\Independent Learning\react-tinyprojects\twenty-game-app\private\inkshape\tile19.png"
       inkscape:export-xdpi="96"
       inkscape:export-ydpi="96">
      <rect
         style="fill:#f28d8d;stroke-width:0.264583;fill-opacity:1"
         id="rect1854-74-1"
         width="62"
         height="74"
         x="4"
         y="483"
         ry="4" />
      <path
         id="rect1854-8-2-60"
         style="opacity:0.7;fill:#000000;stroke-width:0.264583"
         d="m 4.0000001,549.21599 v 3.78375 c 0,2.216 1.7837573,4.00027 3.9997564,4.00027 H 62.000076 c 2.216002,0 3.999756,-1.78427 3.999756,-4.00027 v -3.78375 c 0,2.09621 -1.687531,3.78375 -3.783748,3.78375 H 7.7837481 c -2.0962144,0 -3.783748,-1.68754 -3.783748,-3.78375 z" />
      <text
         xml:space="preserve"
         style="font-style:normal;font-variant:normal;font-weight:normal;font-stretch:normal;font-size:44px;line-height:1.25;font-family:Fredoka;-inkscape-font-specification:Fredoka;fill:#ffffff;fill-opacity:1;stroke:none;stroke-width:0.264583"
         x="14.848989"
         y="535.11401"
         id="text2952-5-57"><tspan
           sodipodi:role="line"
           id="tspan2950-75-3"
           style="font-style:normal;font-variant:normal;font-weight:normal;font-stretch:normal;font-size:44px;font-family:Fredoka;-inkscape-font-specification:Fredoka;fill:#ffffff;stroke-width:0.264583"
           x="14.848989"
           y="535.11401">19</tspan></text>
    </g>
    <rect
       style="opacity:0.7;fill:none;stroke-width:0.264583"
       id="rect160-35-82"
       width="70"
       height="80"
       x="70"
       y="480" />
    <g
       id="g103062"
       inkscape:export-filename="C:\Users\Rifky Achong\Desktop\Buku\Independent Learning\react-tinyprojects\twenty-game-app\private\inkshape\tile20.png"
       inkscape:export-xdpi="96"
       inkscape:export-ydpi="96">
      <rect
         style="fill:#808080;stroke-width:0.264583"
         id="rect1854-02-41"
         width="62"
         height="74"
         x="74"
         y="483"
         ry="4" />
      <path
         id="rect1854-8-01-4"
         style="opacity:0.7;fill:#000000;stroke-width:0.264583"
         d="m 74.000001,549.21599 v 3.78375 c 0,2.216 1.783757,4.00027 3.999756,4.00027 h 54.000323 c 2.216,0 3.99975,-1.78427 3.99975,-4.00027 v -3.78375 c 0,2.09621 -1.68753,3.78375 -3.78375,3.78375 H 77.783749 c -2.096214,0 -3.783748,-1.68754 -3.783748,-3.78375 z" />
      <text
         xml:space="preserve"
         style="font-style:normal;font-variant:normal;font-weight:normal;font-stretch:normal;font-size:44px;line-height:1.25;font-family:Fredoka;-inkscape-font-specification:Fredoka;fill:#ffffff;fill-opacity:1;stroke:none;stroke-width:0.264583"
         x="79.326004"
         y="534.98199"
         id="text2952-3-65"><tspan
           sodipodi:role="line"
           id="tspan2950-63-0"
           style="font-style:normal;font-variant:normal;font-weight:normal;font-stretch:normal;font-size:44px;font-family:Fredoka;-inkscape-font-specification:Fredoka;fill:#ffffff;stroke-width:0.264583"
           x="79.326004"
           y="534.98199">20</tspan></text>
    </g>
    <rect
       style="opacity:0.7;fill:none;stroke-width:0.264583"
       id="rect160-56-14"
       width="70"
       height="80"
       x="140"
       y="480" />
    <g
       id="g23835-7-0"
       transform="translate(140,480.00001)">
      <rect
         style="fill:#ffe680;stroke-width:0.264583"
         id="rect1854-2-6"
         width="62"
         height="74"
         x="4"
         y="3"
         ry="4" />
      <path
         id="rect1854-8-08-1"
         style="opacity:0.7;fill:#000000;stroke-width:0.264583"
         d="m 4,69.215977 v 3.78375 C 4,75.215727 5.7837573,77 7.9997564,77 H 62.000076 c 2.216002,0 3.999756,-1.784273 3.999756,-4.000273 v -3.78375 c 0,2.096217 -1.687531,3.78375 -3.783748,3.78375 H 7.783748 C 5.6875336,72.999727 4,71.312194 4,69.215977 Z" />
      <text
         xml:space="preserve"
         style="font-style:normal;font-variant:normal;font-weight:normal;font-stretch:normal;font-size:50px;line-height:1.25;font-family:Fredoka;-inkscape-font-specification:Fredoka;fill:#ffffff;fill-opacity:1;stroke:none;stroke-width:0.264583"
         x="25.576136"
         y="56.422649"
         id="text2952-44-0"><tspan
           sodipodi:role="line"
           id="tspan2950-8-9"
           style="font-style:normal;font-variant:normal;font-weight:normal;font-stretch:normal;font-size:50px;font-family:Fredoka;-inkscape-font-specification:Fredoka;fill:#ffffff;stroke-width:0.264583"
           x="25.576136"
           y="56.422649">1</tspan></text>
    </g>
    <rect
       style="opacity:0.7;fill:#cccccc;stroke-width:0.264583"
       id="rect160-50-4-1"
       width="70"
       height="80"
       x="1.9073486e-06"
       y="560" />
    <rect
       style="fill:#f28d8d;fill-opacity:1;stroke-width:0.264583"
       id="rect1854-74-1-0"
       width="62"
       height="74"
       x="4.0000019"
       y="563"
       ry="4" />
    <path
       id="rect1854-8-2-60-7"
       style="opacity:0.7;fill:#000000;stroke-width:0.264583"
       d="m 4.0000016,629.21599 v 3.78375 c 0,2.216 1.7837574,4.00027 3.9997565,4.00027 H 62.000078 c 2.216002,0 3.999756,-1.78427 3.999756,-4.00027 v -3.78375 c 0,2.09621 -1.687531,3.78375 -3.783748,3.78375 H 7.7837497 c -2.0962144,0 -3.7837481,-1.68754 -3.7837481,-3.78375 z" />
    <text
       xml:space="preserve"
       style="font-style:normal;font-variant:normal;font-weight:normal;font-stretch:normal;font-size:44px;line-height:1.25;font-family:Fredoka;-inkscape-font-specification:Fredoka;fill:#ffffff;fill-opacity:1;stroke:none;stroke-width:0.264583"
       x="14.84899"
       y="615.11401"
       id="text2952-5-57-0"><tspan
         sodipodi:role="line"
         id="tspan2950-75-3-1"
         style="font-style:normal;font-variant:normal;font-weight:normal;font-stretch:normal;font-size:44px;font-family:Fredoka;-inkscape-font-specification:Fredoka;fill:#ffffff;stroke-width:0.264583"
         x="14.84899"
         y="615.11401">19</tspan></text>
    <rect
       style="opacity:0.7;fill:#cccccc;stroke-width:0.264583"
       id="rect160-35-82-2"
       width="70"
       height="80"
       x="70"
       y="560" />
    <rect
       style="fill:#808080;stroke-width:0.264583"
       id="rect1854-02-41-0"
       width="62"
       height="74"
       x="74"
       y="563"
       ry="4" />
    <path
       id="rect1854-8-01-4-6"
       style="opacity:0.7;fill:#000000;stroke-width:0.264583"
       d="m 74.000003,629.21599 v 3.78375 c 0,2.216 1.783757,4.00027 3.999756,4.00027 h 54.000321 c 2.216,0 3.99975,-1.78427 3.99975,-4.00027 v -3.78375 c 0,2.09621 -1.68753,3.78375 -3.78375,3.78375 H 77.783751 c -2.096214,0 -3.783748,-1.68754 -3.783748,-3.78375 z" />
    <text
       xml:space="preserve"
       style="font-style:normal;font-variant:normal;font-weight:normal;font-stretch:normal;font-size:44px;line-height:1.25;font-family:Fredoka;-inkscape-font-specification:Fredoka;fill:#ffffff;fill-opacity:1;stroke:none;stroke-width:0.264583"
       x="79.326004"
       y="614.98193"
       id="text2952-3-65-7"><tspan
         sodipodi:role="line"
         id="tspan2950-63-0-4"
         style="font-style:normal;font-variant:normal;font-weight:normal;font-stretch:normal;font-size:44px;font-family:Fredoka;-inkscape-font-specification:Fredoka;fill:#ffffff;stroke-width:0.264583"
         x="79.326004"
         y="614.98193">20</tspan></text>
    <rect
       style="opacity:0.7;fill:#cccccc;stroke-width:0.264583"
       id="rect160-56-14-2"
       width="70"
       height="80"
       x="140.00002"
       y="560" />
    <g
       id="g23835-7-0-6"
       transform="translate(140,560.00001)">
      <rect
         style="fill:#ffe680;stroke-width:0.264583"
         id="rect1854-2-6-9"
         width="62"
         height="74"
         x="4"
         y="3"
         ry="4" />
      <path
         id="rect1854-8-08-1-1"
         style="opacity:0.7;fill:#000000;stroke-width:0.264583"
         d="m 4,69.215977 v 3.78375 C 4,75.215727 5.7837573,77 7.9997564,77 H 62.000076 c 2.216002,0 3.999756,-1.784273 3.999756,-4.000273 v -3.78375 c 0,2.096217 -1.687531,3.78375 -3.783748,3.78375 H 7.783748 C 5.6875336,72.999727 4,71.312194 4,69.215977 Z" />
      <text
         xml:space="preserve"
         style="font-style:normal;font-variant:normal;font-weight:normal;font-stretch:normal;font-size:50px;line-height:1.25;font-family:Fredoka;-inkscape-font-specification:Fredoka;fill:#ffffff;fill-opacity:1;stroke:none;stroke-width:0.264583"
         x="25.576136"
         y="56.422649"
         id="text2952-44-0-0"><tspan
           sodipodi:role="line"
           id="tspan2950-8-9-7"
           style="font-style:normal;font-variant:normal;font-weight:normal;font-stretch:normal;font-size:50px;font-family:Fredoka;-inkscape-font-specification:Fredoka;fill:#ffffff;stroke-width:0.264583"
           x="25.576136"
           y="56.422649">1</tspan></text>
    </g>
    <text
       xml:space="preserve"
       style="font-style:normal;font-weight:normal;font-size:10.5833px;line-height:1.25;font-family:sans-serif;fill:#000000;fill-opacity:1;stroke:none;stroke-width:0.264583"
       x="44.292698"
       y="28.85458"
       id="text9916"><tspan
         sodipodi:role="line"
         id="tspan9914"
         style="stroke-width:0.264583"
         x="44.292698"
         y="28.85458" /></text>
    <rect
       style="opacity:0.7;fill:none;stroke-width:0.264583"
       id="rect36"
       width="70"
       height="80"
       x="92.795975"
       y="8.6060791" />
  </g>
</svg>
