<?xml version="1.0" encoding="utf-8"?>
<!-- Svg Vector Icons : http://www.onlinewebfonts.com/icon -->
<!DOCTYPE svg PUBLIC "-//W3C//DTD SVG 1.1//EN" "http://www.w3.org/Graphics/SVG/1.1/DTD/svg11.dtd">
<svg version="1.1" xmlns="http://www.w3.org/2000/svg" xmlns:xlink="http://www.w3.org/1999/xlink" x="0px" y="0px" viewBox="0 0 1000 1000" enable-background="new 0 0 1000 1000" xml:space="preserve">
<metadata> Svg Vector Icons : http://www.onlinewebfonts.com/icon </metadata>
<g><path d="M500,10c-270.6,0-490,219.4-490,490C10,770.6,229.4,990,500,990c270.6,0,490-219.4,490-489.9C990,229.4,770.6,10,500,10z M778.8,780.3c-8.5,9-19.8,13.5-31.2,13.5c-10.8,0-21.8-4.1-30.2-12.7L500.3,562.9L285.8,783.7c-8.5,8.7-19.6,13.1-30.6,13.1c-11.2,0-22.2-4.4-30.7-13.2c-17-17.4-16.9-45.8,0.1-63.3l213.6-219.9L222,283.1c-17.2-17.3-17.5-45.6-0.9-63.4c16.7-17.7,44.1-18.1,61.4-0.7l217,218.1l214.6-220.9c16.9-17.3,44.4-17.3,61.4,0.1c16.9,17.5,16.9,45.8-0.1,63.4L561.8,499.6L778,717C795.2,734.2,795.5,762.5,778.8,780.3z"/></g>
</svg> 